<svg xmlns="http://www.w3.org/2000/svg" id="health-experts" version="1.1" viewBox="0 0 125 112.3"><defs><style>.cls-2,.cls-3{stroke:#000;stroke-miterlimit:10;stroke-width:.7px}.cls-2{fill:#fff}.cls-3{fill:none}</style></defs><rect width="75.9" height="93.6" x="24.3" y="9" rx="6.8" ry="6.8" style="stroke:#000;stroke-miterlimit:10;stroke-width:.7px;fill:#def0e9"/><path d="M31.5 14.5h61.6V97H31.5z" class="cls-2"/><path d="M40.6 28.8h9.5v9.5h-9.5zM40.6 51h9.5v9.5h-9.5zM40.6 73.9h9.5v9.5h-9.5zM55.3 31.3h29.5M55.3 35.3h23M55.3 52h26.6M55.3 55.4h27M55.3 59.5H73M55.3 76.1h26.6M55.3 80.2H74" class="cls-3"/><path d="m42.8 31.1 2.4 4.2 6.6-8.1M42.8 53.2l2.4 4.2 6.6-8.2M42.8 75.9l2.4 4.3 6.6-8.2" class="cls-3"/><path d="M91.6 53.2c-5.9-9.6-18.4-12.5-28-6.6C54 52.5 51.1 65 57 74.6c5.2 8.4 15.6 11.7 24.5 8.3 1.2-.4 2.3-1 3.4-1.7s2.1-1.5 3.1-2.3c7.1-6.5 8.8-17.2 3.6-25.7Zm-8.8 24.3c-7.5 4.7-17.4 2.3-22.1-5.2-4.7-7.5-2.3-17.4 5.2-22.1 7.5-4.7 17.4-2.3 22.1 5.2 4.7 7.5 2.3 17.4-5.2 22.1Z" class="cls-2"/><path d="m88 78.8 5 8.1-6.5 4-5-8.1c1.2-.4 2.3-1 3.4-1.7s2.1-1.5 3.1-2.3Z" class="cls-2"/><path d="M92.4 87.1h7.6v24.6h-7.6z" class="cls-2" transform="rotate(-31.7 96.276 99.27)"/><path d="M67.3 5.6S67.2.5 62.2.5s-4.9 5.1-4.9 5.1-12.7-.6-14 11.5h38s-2-11.5-14-11.5Zm-5 .2c-.8 0-1.5-.7-1.5-1.5s.7-1.5 1.5-1.5 1.5.7 1.5 1.5-.7 1.5-1.5 1.5Z" class="cls-2"/><path d="M49.9 13.1h25M52.8 9.6h19.1" class="cls-3"/></svg>