<svg xmlns="http://www.w3.org/2000/svg" id="medically-reviewed" version="1.1" viewBox="0 0 125 112.3"><defs><style>.cls-1,.cls-3{fill:#def0e9;stroke:#000;stroke-miterlimit:10;stroke-width:.8px}.cls-3{fill:none}</style></defs><path d="M.7 11.5h123.6v89.8H.7z" style="fill:#fff;stroke:#000;stroke-miterlimit:10;stroke-width:.8px"/><path d="M8.1 19.2h108.8v74.5H8.1zM32.5 70.4h32.4M25.4 42.9H72M24.1 51.7h49.2M25.3 60.9h46.8M18 85.5h61.4" class="cls-3"/><path d="M22.3 26.5h81.2v4.6H22.3z" class="cls-3"/><path d="m102.7 54.2 1.5 6.6-1.6-.3-5.2-1.1-3.2 5.5-.2.2-.3-.5-3.5-5.3-5 1.2-1.6.3 1.6-6.6-5.9-3.8 5.7-3.6-1.4-6.6 6.6 1.6 3.8-5.9 3.6 5.8 6.6-1.5-1.4 6.7 5.7 3.5-5.8 3.8z" class="cls-1"/><circle cx="93.9" cy="50.5" r="7.4" class="cls-1"/><path d="m93.7 64.6-4.1 15.9-3.4-4.9-5.6 2.6 4.6-17.7 5-1.2 3.5 5.3zM107.2 78.2l-5.6-2.6-3.4 4.9-4-15.6 3.2-5.5 5.2 1.1 4.6 17.7z" class="cls-1"/></svg>