<svg xmlns="http://www.w3.org/2000/svg" id="fact-checked" version="1.1" viewBox="0 0 125 112.3"><defs><style>.cls-1{fill:#fff}.cls-1,.cls-2,.cls-3{stroke:#000;stroke-miterlimit:10;stroke-width:.8px}.cls-2{fill:none}.cls-3{fill:#def0e9}</style></defs><path d="M7.5 10h69.1v92.5H7.5z" class="cls-3" transform="rotate(-3.8 41.91 55.71)"/><path d="M16.2 27.3h10.7V38H16.2z" class="cls-1" transform="rotate(-3.8 21.558 32.402)"/><path d="M17.9 52.2h10.7v10.7H17.9z" class="cls-1" transform="rotate(-3.8 23.723 58.125)"/><path d="M19.6 77.8h10.7v10.7H19.6z" class="cls-1" transform="rotate(-3.8 24.38 83.798)"/><path d="m32.5 29.4 32.9-2.2M32.8 34l25.7-1.7M34 52.6l29.8-2M34.3 56.5l30.2-2.1M34.6 61l19.8-1.3M35.8 79.6l29.8-2M36.1 84.2l21-1.4M18.4 30.2l3.1 4.5 6.8-9.6M20.1 54.9l3 4.5 6.8-9.6M21.8 80.3l3 4.6 6.8-9.7" class="cls-2"/><path d="M48.3 10.3h70V104h-70z" class="cls-3" transform="rotate(3.5 83.626 56.414)"/><path d="M60.3 25.3h10.8v10.8H60.3z" class="cls-2" transform="rotate(3.5 66.46 30.73)"/><path d="M58.8 50.5h10.8v10.8H58.8z" class="cls-2" transform="rotate(3.5 63.938 55.378)"/><path d="M57.2 76.5H68v10.8H57.2z" class="cls-2" transform="rotate(3.5 63.101 81.612)"/><path d="m77.1 28.9 33.4 2M76.8 33.5l26.1 1.6M75.7 52.3l30.1 1.9M75.4 56.3l30.7 1.8M75.2 60.9l20 1.2M74 79.7l30.2 1.9M73.7 84.4 95 85.7M62.9 27.8l2.5 5 8.1-8.8M61.4 52.8l2.4 5 8.1-8.8M59.8 78.6l2.5 5 8.1-8.8" class="cls-2"/><path d="M22.4.5h83.1v111.3H22.4z" class="cls-1"/><path d="M34.8 19.7h12.8v12.8H34.8zM34.8 49.7h12.8v12.8H34.8zM34.8 80.6h12.8v12.8H34.8zM54.6 23.1h39.7M54.6 28.6h30.9M54.6 51h35.8M54.6 55.7H91M54.6 61.2h23.8M54.6 83.6h35.8M54.6 89.1h25.2" class="cls-2"/><path d="m37.7 22.9 3.2 5.7 9-11M37.7 52.6l3.2 5.8 9-11.1M37.7 83.3l3.2 5.8 9-11.1" class="cls-2"/><circle cx="79.3" cy="80.7" r="14.6" class="cls-3"/><path d="M78.5 89.3 69 77l3-2.4 6.8 8.7 15.4-17 2.8 2.6-18.5 20.4z" class="cls-1"/></svg>