<svg xmlns="http://www.w3.org/2000/svg" id="updated" version="1.1" viewBox="0 0 125 112.3"><defs><style>.cls-3{fill:#000;stroke-width:0}</style></defs><rect width="63.7" height="110.1" x="30.1" y="1" rx="12.4" ry="12.4" style="fill:#def0e9;stroke:#000;stroke-miterlimit:10;stroke-width:.8px"/><rect width="56.4" height="103" x="33.8" y="4.6" rx="8.5" ry="8.5" style="stroke:#000;stroke-miterlimit:10;stroke-width:.8px;fill:#fff"/><path d="M77.4 63.6c-2.9 6.3-9.5 10.5-17 9.9s-15.3-7.8-15.7-16.3 2.4-11.3 7.2-14.7l-1.3-3.9L61.8 41l-7.7 8.5-1.2-3.7c-3.2 2.7-5.1 6.7-4.9 11 .2 7 5.8 12.9 12.8 13.4 5.8.4 10.9-2.8 13.3-7.5s1.5-1.4 2.5-1c.7.3 1.1 1.1.8 1.9Z" class="cls-3"/><circle cx="73" cy="44.2" r="1.8" class="cls-3"/><circle cx="66.9" cy="40.8" r="1.8" class="cls-3"/><circle cx="76.8" cy="50.1" r="1.8" class="cls-3"/><circle cx="77.4" cy="57.1" r="1.8" class="cls-3"/></svg>